subject_01
version=1
nRows=351
nColumns=3
inDegrees=yes
endheader
time	r_shoulder_elev	r_elbow_flex
34.4000	10.112413	60.605823
34.4100	10.112413	61.483613
34.4200	10.112413	62.487194
34.4300	10.112413	63.575213
34.4400	10.112413	64.682010
34.4500	10.112413	65.734744
34.4600	10.112413	66.673080
34.4700	10.112413	67.466022
34.4800	10.112413	68.121158
34.4900	10.112413	68.683592
34.5000	10.112413	69.224639
34.5100	10.112413	69.823184
34.5200	10.112413	70.544692
34.5300	10.112413	71.423522
34.5400	10.112413	72.453394
34.5500	10.112413	73.588622
34.5600	10.112413	74.755835
34.5700	10.112413	75.873059
34.5800	10.112413	76.871007
34.5900	10.112413	77.710901
34.6000	10.112413	78.394089
34.6100	10.112413	78.961015
34.6200	10.112413	79.479976
34.6300	10.112413	80.028879
34.6400	10.112413	80.674993
34.6500	10.112413	81.458146
34.6600	10.112413	82.381688
34.6700	10.112413	83.413367
34.6800	10.112413	84.495443
34.6900	10.112413	85.560933
34.7000	10.112413	86.551327
34.7100	10.112413	87.430898
34.7200	10.112413	88.193951
34.7300	10.112413	88.863450
34.7400	10.112413	89.481980
34.7500	10.112413	90.098074
34.7600	10.112413	90.752103
34.7700	10.112413	91.465773
34.7800	10.112413	92.238019
34.7900	10.112413	93.048041
34.8000	10.112413	93.864073
34.8100	10.112413	94.654847
34.8200	10.112413	95.400059
34.8300	10.112413	96.096612
34.8400	10.112413	96.758871
34.8500	10.112413	97.413057
34.8600	10.112413	98.087762
34.8700	10.112413	98.803704
34.8800	10.112413	99.566012
34.8900	10.112413	100.361489
34.9000	10.112413	101.161716
34.9100	10.112413	101.931035
34.9200	10.112413	102.636947
34.9300	10.112413	103.259739
34.9400	10.112413	103.798433
34.9500	10.112413	104.271283
34.9600	10.112413	104.710714
34.9700	10.112413	105.154292
34.9800	10.112413	105.634465
34.9900	10.112413	106.170131
35.0000	10.112413	106.762462
35.0100	10.112413	107.396059
35.0200	10.112413	108.044850
35.0300	10.112413	108.680711
35.0400	10.112413	109.282005
35.0500	10.112413	109.839333
35.0600	10.112413	110.356777
35.0700	10.112413	110.848384
35.0800	10.112413	111.331228
35.0900	10.112413	111.817498
35.1000	10.112413	112.308412
35.1100	10.112413	112.792186
35.1200	10.112413	113.246969
35.1300	10.112413	113.648044
35.1400	10.112413	113.977108
35.1500	10.112413	114.230648
35.1600	10.112413	114.424525
35.1700	10.112413	114.592888
35.1800	10.112413	114.781210
35.1900	10.112413	115.035018
35.2000	10.112413	115.387285
35.2100	10.112413	115.848067
35.2200	10.112413	116.399474
35.2300	10.112413	116.997733
35.2400	10.112413	117.582184
35.2500	10.112413	118.089097
35.2600	10.112413	118.466848
35.2700	10.112413	118.688526
35.2800	10.112413	118.758677
35.2900	10.112413	118.712409
35.3000	10.112413	118.607118
35.3100	10.112413	118.508977
35.3200	10.112413	118.477693
35.3300	10.112413	118.553382
35.3400	10.112413	118.748725
35.3500	10.112413	119.048101
35.3600	10.112413	119.413475
35.3700	10.112413	119.795135
35.3800	10.112413	120.144172
35.3900	10.112413	120.423441
35.4000	10.112413	120.614352
35.4100	10.112413	120.718225
35.4200	10.112413	120.752500
35.4300	10.112413	120.743478
35.4400	10.112413	120.718048
35.4500	10.112413	120.696848
35.4600	10.112413	120.690612
35.4700	10.112413	120.700274
35.4800	10.112413	120.720181
35.4900	10.112413	120.742873
35.5000	10.112413	120.763504
35.5100	10.112413	120.782355
35.5200	10.112413	120.804635
35.5300	10.112413	120.837850
35.5400	10.112413	120.887860
35.5500	10.112413	120.955242
35.5600	10.112413	121.033451
35.5700	10.112413	121.109623
35.5800	10.112413	121.167956
35.5900	10.112413	121.194639
35.6000	10.112413	121.182726
35.6100	10.112413	121.135256
35.6200	10.112413	121.065424
35.6300	10.112413	120.993444
35.6400	10.112413	120.940772
35.6500	10.112413	120.923593
35.6600	10.112413	120.947714
35.6700	10.112413	121.005996
35.6800	10.112413	121.079577
35.6900	10.112413	121.142747
35.7000	10.112413	121.170219
35.7100	10.112413	121.144794
35.7200	10.112413	121.063199
35.7300	10.112413	120.938340
35.7400	10.112413	120.797144
35.7500	10.112413	120.674407
35.7600	10.112413	120.604155
35.7700	10.112413	120.610752
35.7800	10.112413	120.702080
35.7900	10.112413	120.866590
35.8000	10.112413	121.075035
35.8100	10.112413	121.286481
35.8200	10.112413	121.457146
35.8300	10.112413	121.549778
35.8400	10.112413	121.541219
35.8500	10.112413	121.427665
35.8600	10.112413	121.225396
35.8700	10.112413	120.967230
35.8800	10.112413	120.695854
35.8900	10.112413	120.455563
35.9000	10.112413	120.284150
35.9100	10.112413	120.206388
35.9200	10.112413	120.230124
35.9300	10.112413	120.345337
35.9400	10.112413	120.526023
35.9500	10.112413	120.734358
35.9600	10.112413	120.926425
35.9700	10.112413	121.058704
35.9800	10.112413	121.094555
35.9900	10.112413	121.009959
36.0000	10.112413	120.797736
36.0100	10.112413	120.469544
36.0200	10.112413	120.055062
36.0300	10.112413	119.598059
36.0400	10.112413	119.149555
36.0500	10.112413	118.758907
36.0600	10.112413	118.464280
36.0700	10.112413	118.284394
36.0800	10.112413	118.213513
36.0900	10.112413	118.221162
36.1000	10.112413	118.257185
36.1100	10.112413	118.261510
36.1200	10.112413	118.176763
36.1300	10.112413	117.960954
36.1400	10.112413	117.597191
36.1500	10.112413	117.097871
36.1600	10.112413	116.502004
36.1700	10.112413	115.866025
36.1800	10.112413	115.250143
36.1900	10.112413	114.703560
36.2000	10.112413	114.252330
36.2100	10.112413	113.893107
36.2200	10.112413	113.594536
36.2300	10.112413	113.306073
36.2400	10.112413	112.971967
36.2500	10.112413	112.546668
36.2600	10.112413	112.007452
36.2700	10.112413	111.360690
36.2800	10.112413	110.639923
36.2900	10.112413	109.896144
36.3000	10.112413	109.182912
36.3100	10.112413	108.540463
36.3200	10.112413	107.983371
36.3300	10.112413	107.495413
36.3400	10.112413	107.033326
36.3500	10.112413	106.538623
36.3600	10.112413	105.954307
36.3700	10.112413	105.241794
36.3800	10.112413	104.393179
36.3900	10.112413	103.435137
36.4000	10.112413	102.423052
36.4100	10.112413	101.426708
36.4200	10.112413	100.511316
36.4300	10.112413	99.719112
36.4400	10.112413	99.056706
36.4500	10.112413	98.491951
36.4600	10.112413	97.961449
36.4700	10.112413	97.386931
36.4800	10.112413	96.696174
36.4900	10.112413	95.842809
36.5000	10.112413	94.819530
36.5100	10.112413	93.660994
36.5200	10.112413	92.435431
36.5300	10.112413	91.227117
36.5400	10.112413	90.114360
36.5500	10.112413	89.148913
36.5600	10.112413	88.342362
36.5700	10.112413	87.663150
36.5800	10.112413	87.045017
36.5900	10.112413	86.404528
36.6000	10.112413	85.662932
36.6100	10.112413	84.766484
36.6200	10.112413	83.699844
36.6300	10.112413	82.489150
36.6400	10.112413	81.194186
36.6500	10.112413	79.892057
36.6600	10.112413	78.656957
36.6700	10.112413	77.541578
36.6800	10.112413	76.565028
36.6900	10.112413	75.710193
36.7000	10.112413	74.930780
36.7100	10.112413	74.165605
36.7200	10.112413	73.355843
36.7300	10.112413	72.460332
36.7400	10.112413	71.464843
36.7500	10.112413	70.383147
36.7600	10.112413	69.250162
36.7700	10.112413	68.109711
36.7800	10.112413	67.000816
36.7900	10.112413	65.946683
36.8000	10.112413	64.949465
36.8100	10.112413	63.992019
36.8200	10.112413	63.045684
36.8300	10.112413	62.081328
36.8400	10.112413	61.080017
36.8500	10.112413	60.039918
36.8600	10.112413	58.977335
36.8700	10.112413	57.921651
36.8800	10.112413	56.905890
36.8900	10.112413	55.955918
36.9000	10.112413	55.081716
36.9100	10.112413	54.273445
36.9200	10.112413	53.503562
36.9300	10.112413	52.734320
36.9400	10.112413	51.928396
36.9500	10.112413	51.059440
36.9600	10.112413	50.119400
36.9700	10.112413	49.120505
36.9800	10.112413	48.091436
36.9900	10.112413	47.068971
37.0000	10.112413	46.087719
37.0100	10.112413	45.171071
37.0200	10.112413	44.326029
37.0300	10.112413	43.543305
37.0400	10.112413	42.802381
37.0500	10.112413	42.079696
37.0600	10.112413	41.357155
37.0700	10.112413	40.628123
37.0800	10.112413	39.898941
37.0900	10.112413	39.185471
37.1000	10.112413	38.505877
37.1100	10.112413	37.872113
37.1200	10.112413	37.283104
37.1300	10.112413	36.722160
37.1400	10.112413	36.159871
37.1500	10.112413	35.562001
37.1600	10.112413	34.900217
37.1700	10.112413	34.162476
37.1800	10.112413	33.359743
37.1900	10.112413	32.526625
37.2000	10.112413	31.715204
37.2100	10.112413	30.983289
37.2200	10.112413	30.380025
37.2300	10.112413	29.932681
37.2400	10.112413	29.638308
37.2500	10.112413	29.462716
37.2600	10.112413	29.347315
37.2700	10.112413	29.222255
37.2800	10.112413	29.022570
37.2900	10.112413	28.703243
37.3000	10.112413	28.249369
37.3100	10.112413	27.678923
37.3200	10.112413	27.037589
37.3300	10.112413	26.387198
37.3400	10.112413	25.790885
37.3500	10.112413	25.298833
37.3600	10.112413	24.938087
37.3700	10.112413	24.708711
37.3800	10.112413	24.586722
37.3900	10.112413	24.532467
37.4000	10.112413	24.501775
37.4100	10.112413	24.456707
37.4200	10.112413	24.373171
37.4300	10.112413	24.243780
37.4400	10.112413	24.075849
37.4500	10.112413	23.885810
37.4600	10.112413	23.692216
37.4700	10.112413	23.509639
37.4800	10.112413	23.345249
37.4900	10.112413	23.198751
37.5000	10.112413	23.065204
37.5100	10.112413	22.939307
37.5200	10.112413	22.819347
37.5300	10.112413	22.709228
37.5400	10.112413	22.617809
37.5500	10.112413	22.555772
37.5600	10.112413	22.531172
37.5700	10.112413	22.545334
37.5800	10.112413	22.590696
37.5900	10.112413	22.651575
37.6000	10.112413	22.707834
37.6100	10.112413	22.740466
37.6200	10.112413	22.737344
37.6300	10.112413	22.697275
37.6400	10.112413	22.630905
37.6500	10.112413	22.558059
37.6600	10.112413	22.502487
37.6700	10.112413	22.484268
37.6800	10.112413	22.513011
37.6900	10.112413	22.584021
37.7000	10.112413	22.678496
37.7100	10.112413	22.767913
37.7200	10.112413	22.821564
37.7300	10.112413	22.815236
37.7400	10.112413	22.738637
37.7500	10.112413	22.599455
37.7600	10.112413	22.422806
37.7700	10.112413	22.246056
37.7800	10.112413	22.110244
37.7900	10.112413	22.050247
37.8000	10.112413	22.086132
37.8100	10.112413	22.217854
37.8200	10.112413	22.424579
37.8300	10.112413	22.668728
37.8400	10.112413	22.903742
37.8500	10.112413	23.083774
37.8600	10.112413	23.173246
37.8700	10.112413	23.153553
37.8800	10.112413	23.026364
37.8900	10.112413	22.812975
37.9000	10.112413	22.550084
